Land_normalized_pl07_filtered_grf
version=1
nRows=12
nColumns=37
inDegrees=yes
endheader
time		1_ground_force_vx		1_ground_force_vy		1_ground_force_vz		1_ground_force_px		1_ground_force_py		1_ground_force_pz		1_ground_torque_x		1_ground_torque_y		1_ground_torque_z		2_ground_force_vx		2_ground_force_vy		2_ground_force_vz		2_ground_force_px		2_ground_force_py		2_ground_force_pz		2_ground_torque_x		2_ground_torque_y		2_ground_torque_z		3_ground_force_vx		3_ground_force_vy		3_ground_force_vz		3_ground_force_px		3_ground_force_py		3_ground_force_pz		3_ground_torque_x		3_ground_torque_y		3_ground_torque_z		4_ground_force_vx		4_ground_force_vy		4_ground_force_vz		4_ground_force_px		4_ground_force_py		4_ground_force_pz		4_ground_torque_x		4_ground_torque_y		4_ground_torque_z		
0.582000		7.183467		-34.661808		-33.344257		0.137070		0.000000		0.226711		-0.035395		0.170789		0.164297		-5.235996		-45.379827		-17.502279		-0.150708		0.000000		0.267593		0.147145		1.275291		0.491859		22.496682		1.175324		0.286779		0.375626		1.310995		1.913591		-0.101044		-0.005279		-0.001288		-18.599006		-0.515718		2.063191		-0.265090		1.309979		1.924442		0.013965		0.000387		-0.001549		
0.584955		10.616972		-60.592560		-53.842578		0.138200		0.000000		0.233282		-0.046245		0.263923		0.234524		-3.456164		-77.256472		-36.931578		-0.150221		0.000000		0.264986		0.071649		1.600334		0.764948		22.515355		1.104287		0.259060		0.375608		1.310989		1.913580		-0.100249		-0.004917		-0.001154		-18.363345		-0.479290		2.107303		-0.265103		1.309970		1.924423		0.012597		0.000329		-0.001446		
0.587909		10.789310		-70.357128		-59.515367		0.139827		0.000000		0.238043		-0.048008		0.313079		0.264830		1.432108		-88.291740		-49.403830		-0.151191		0.000000		0.262844		-0.022109		1.372217		0.767626		22.531720		1.028952		0.147977		0.375590		1.310985		1.913569		-0.099215		-0.004531		-0.000652		-18.170219		-0.444155		2.113116		-0.265116		1.309968		1.924407		0.011584		0.000283		-0.001347		
0.590864		5.266588		-45.578718		-36.652836		0.145679		0.000000		0.247094		-0.033964		0.294822		0.237009		9.360101		-56.298006		-43.196818		-0.156787		0.000000		0.258538		-0.070102		0.429243		0.327587		22.540413		0.959987		-0.026666		0.375568		1.310983		1.913559		-0.097619		-0.004157		0.000116		-18.047349		-0.433695		2.076713		-0.265132		1.309971		1.924393		0.011202		0.000269		-0.001289		
0.593818		-7.493804		30.353527		24.972582		0.116165		0.000000		0.210452		-0.026074		0.102701		0.084804		19.061812		37.713998		-6.948151		-0.153704		0.000000		0.246610		-0.946628		-1.843665		0.360478		22.536692		0.908858		-0.219701		0.375545		1.310984		1.913547		-0.095624		-0.003856		0.000932		-17.999523		-0.464994		2.005093		-0.265155		1.309978		1.924380		0.011533		0.000298		-0.001285		
0.596773		-27.123569		165.789012		126.400045		0.131139		0.000000		0.233682		-0.007950		0.048495		0.036998		28.117503		201.238531		65.751442		-0.142768		0.000000		0.259068		-0.677811		-4.841783		-1.580204		22.511184		0.881134		-0.375743		0.375522		1.310990		1.913535		-0.093822		-0.003673		0.001566		-18.012718		-0.542578		1.912351		-0.265185		1.309985		1.924370		0.012374		0.000373		-0.001314		
0.599727		-50.744166		355.452844		255.289874		0.132865		0.000000		0.238491		-0.021644		0.151786		0.108945		33.602863		423.641132		171.857802		-0.142991		0.000000		0.257795		-0.605444		-7.626610		-3.093253		22.447700		0.872331		-0.448820		0.375497		1.310998		1.913523		-0.092931		-0.003612		0.001858		-18.066099		-0.656138		1.814478		-0.265221		1.309992		1.924363		0.013334		0.000485		-0.001339		
0.602682		-73.328055		579.319732		386.102472		0.133226		0.000000		0.242049		-0.096261		0.761090		0.506976		33.325659		675.189286		296.668113		-0.142338		0.000000		0.255744		-0.474964		-9.615582		-4.224589		22.329239		0.869407		-0.418896		0.375474		1.311007		1.913511		-0.093391		-0.003636		0.001752		-18.142192		-0.782496		1.725588		-0.265261		1.309998		1.924360		0.014054		0.000606		-0.001337		
0.605636		-89.338592		807.725853		486.638054		0.133089		0.000000		0.245576		-0.253419		2.292521		1.380557		27.238339		914.469432		415.994077		-0.140967		0.000000		0.253201		-0.296932		-9.959375		-4.530400		22.152370		0.858067		-0.299323		0.375451		1.311015		1.913500		-0.095117		-0.003685		0.001285		-18.229596		-0.891669		1.655773		-0.265301		1.310003		1.924359		0.014379		0.000703		-0.001306		
0.608591		-95.321326		1011.353342		530.065338		0.132767		0.000000		0.249390		-0.485620		5.154437		2.700498		18.233002		1102.924852		503.261247		-0.138889		0.000000		0.250296		-0.136826		-8.266681		-3.772173		21.939323		0.831888		-0.131930		0.375429		1.311020		1.913491		-0.097537		-0.003698		0.000587		-18.321976		-0.955570		1.610155		-0.265336		1.310006		1.924361		0.014360		0.000749		-0.001262		
0.611545		-92.094444		1170.844157		507.377576		0.132537		0.000000		0.253487		-0.747334		9.502974		4.117144		11.500386		1219.766388		539.311037		-0.136187		0.000000		0.247460		-0.046405		-4.918635		-2.174979		21.735457		0.797955		0.029747		0.375410		1.311024		1.913485		-0.099908		-0.003667		-0.000137		-18.417068		-0.956636		1.590256		-0.265364		1.310009		1.924365		0.014120		0.000733		-0.001219		
0.614500		-84.582119		1280.666262		432.965612		0.132609		0.000000		0.257606		-0.985175		14.916628		5.042990		12.377236		1268.586540		520.259871		-0.133258		0.000000		0.245583		-0.010411		-1.067074		-0.437617		21.590562		0.775430		0.140125		0.375395		1.311029		1.913485		-0.101647		-0.003651		-0.000660		-18.514490		-0.893381		1.595635		-0.265384		1.310012		1.924369		0.013692		0.000661		-0.001180		
